<svg width="63" height="46" viewBox="0 0 63 46" fill="none" xmlns="http://www.w3.org/2000/svg">
<path d="M4.79189 38.373C5.03736 38.6465 5.16811 38.9891 5.16126 39.3407C5.17379 39.57 5.12885 39.7989 5.02977 40.0105C4.93069 40.2221 4.78001 40.4109 4.5889 40.563C4.11204 40.8872 3.52126 41.0457 2.92505 41.0093H0V34.8769H2.86515C3.43071 34.8431 3.99178 34.9871 4.45246 35.2844C4.63749 35.4238 4.78401 35.6 4.88045 35.7991C4.97689 35.9982 5.02062 36.2148 5.00819 36.4317C5.025 36.77 4.90698 37.1026 4.67542 37.3694C4.4531 37.6131 4.14588 37.782 3.80356 37.8488C4.19162 37.9125 4.54189 38.0983 4.79189 38.373V38.373ZM1.36103 37.4473H2.58562C2.86394 37.4659 3.14036 37.3935 3.3643 37.2436C3.45625 37.1686 3.52779 37.0755 3.57337 36.9716C3.61896 36.8677 3.63737 36.7558 3.62719 36.6445C3.63583 36.5335 3.61704 36.4222 3.57215 36.3186C3.52727 36.215 3.45742 36.1217 3.36763 36.0453C3.13699 35.8911 2.85198 35.8177 2.56566 35.8386H1.36103V37.4473ZM3.4841 39.799C3.58239 39.7222 3.65965 39.6261 3.70986 39.518C3.76008 39.4099 3.7819 39.2928 3.77361 39.1759C3.78111 39.0576 3.7583 38.9394 3.70694 38.8303C3.65559 38.7212 3.57707 38.6242 3.47745 38.5468C3.23785 38.3869 2.94319 38.3084 2.64552 38.3251H1.36103V40.0117H2.66216C2.95502 40.0269 3.24492 39.9519 3.4841 39.799V39.799Z" fill="#8E8F99"/>
<path d="M10.6487 41.0093L9.05471 38.6127H8.45573V41.0093H7.08472V34.8769H9.68032C10.3346 34.8358 10.9814 35.0224 11.4873 35.3982C11.8501 35.731 12.0689 36.1696 12.1043 36.6348C12.1397 37.1001 11.9893 37.5614 11.6803 37.9357C11.36 38.2659 10.9226 38.4861 10.4424 38.5588L12.1395 41.0093H10.6487ZM8.45573 37.7769H9.57716C10.3558 37.7769 10.7452 37.4673 10.7452 36.8482C10.7531 36.7217 10.7318 36.5952 10.6825 36.4766C10.6333 36.358 10.5571 36.2499 10.459 36.1591C10.2129 35.9749 9.89602 35.8855 9.57716 35.9105H8.44242L8.45573 37.7769Z" fill="#8E8F99"/>
<path d="M18.1426 39.775H15.4106L14.928 41.0093H13.4905L15.9996 34.9458H17.5536L20.0527 41.0093H18.6151L18.1426 39.775ZM17.7766 38.8463L16.7782 36.258L15.7799 38.8463H17.7766Z" fill="#8E8F99"/>
<path d="M27.5234 41.0094H26.1624L23.1109 36.8392V41.0094H21.7532V34.877H23.1109L26.1624 39.0711V34.877H27.5234V41.0094Z" fill="#8E8F99"/>
<path d="M35.2904 39.5415C35.009 40.0045 34.5802 40.3811 34.0591 40.6229C33.4667 40.8923 32.8092 41.0251 32.1457 41.0094H29.7231V34.877H32.1457C32.8081 34.8614 33.4647 34.991 34.0591 35.2545C34.5801 35.4908 35.0094 35.8637 35.2904 36.324C35.5705 36.8227 35.7165 37.3738 35.7165 37.9327C35.7165 38.4916 35.5705 39.0427 35.2904 39.5415V39.5415ZM33.733 39.3947C34.1215 38.9873 34.335 38.4681 34.335 37.9312C34.335 37.3943 34.1215 36.8752 33.733 36.4678C33.2635 36.0988 32.6513 35.9114 32.0292 35.9465H31.0842V39.9159H32.0292C32.6513 39.951 33.2635 39.7637 33.733 39.3947Z" fill="#8E8F99"/>
<path d="M18.9946 0.766663C18.9946 0.766663 36.5616 6.7373 36.1889 15.3772V29.9907C36.1889 29.9907 18.6352 24.0171 19.0013 15.3772L18.9946 0.766663Z" fill="#8E8F99"/>
<path d="M51.8389 26.5694C55.1565 24.5139 58.9941 23.2408 63 22.8666V18.292C58.3842 19.8935 54.4686 22.7975 51.8389 26.5694V26.5694Z" fill="#8E8F99"/>
<path d="M49.8456 27.9477C52.5611 23.0252 57.2686 19.2268 63 17.3336V4.15204C63 4.15204 37.9823 12.6571 38.5114 24.9609V45.7667C38.5114 45.7667 39.6262 45.3863 41.3799 44.6733C41.3799 44.0082 41.3799 43.3371 41.4598 42.6631C41.9776 36.9511 44.9939 31.658 49.8456 27.9477Z" fill="#8E8F99"/>
<path d="M47.4665 35.6768C47.5979 34.2338 47.8911 32.8066 48.3416 31.4167C45.3206 34.6209 43.4912 38.597 43.1105 42.7858C43.0739 43.1813 43.0539 43.5767 43.0439 43.9841C44.4649 43.37 46.1187 42.6031 47.8558 41.7013C47.4125 39.7196 47.2814 37.6915 47.4665 35.6768V35.6768Z" fill="#8E8F99"/>
<path d="M48.4612 35.7517C48.2947 37.5745 48.3988 39.4091 48.7707 41.2071C55.6058 37.5253 63.2861 31.8362 62.99 24.9609V24.3617C58.1066 24.8536 53.5377 26.7755 49.9853 29.832C49.1536 31.7262 48.6399 33.7213 48.4612 35.7517V35.7517Z" fill="#8E8F99"/>
</svg>
