<svg width="94" height="45" viewBox="0 0 94 45" fill="none" xmlns="http://www.w3.org/2000/svg">
<path d="M47.5293 21.4432C47.0853 20.8523 46.8729 20.1541 46.9233 19.4512V16.5631C46.9233 15.6778 47.1242 15.005 47.5259 14.5447C47.9277 14.0844 48.6177 13.8552 49.596 13.8572C50.5153 13.8572 51.1679 14.0531 51.5537 14.4448C51.9746 14.9446 52.1794 15.5558 52.1325 16.1724V16.851H50.488V16.1635C50.4939 15.9385 50.4779 15.7135 50.4404 15.4907C50.4167 15.3384 50.3339 15.1976 50.2055 15.0912C50.0366 14.9765 49.8239 14.9209 49.6096 14.9354C49.3843 14.9209 49.1609 14.9796 48.9832 15.1C48.8399 15.2179 48.7444 15.3724 48.7108 15.5407C48.6636 15.7764 48.642 16.0154 48.6461 16.2546V19.7597C48.6202 20.0978 48.6927 20.4362 48.8572 20.7439C48.939 20.848 49.0526 20.9306 49.1854 20.9824C49.3182 21.0343 49.465 21.0534 49.6096 21.0377C49.8203 21.0527 50.0293 20.9957 50.1918 20.8791C50.3258 20.7643 50.412 20.6145 50.437 20.4531C50.4754 20.2205 50.4925 19.9857 50.488 19.7509V19.0399H52.1325V19.6892C52.1787 20.3318 51.9789 20.9698 51.5639 21.5049C51.186 21.9338 50.5425 22.1483 49.596 22.1483C48.6495 22.1483 47.9345 21.9191 47.5293 21.4432Z" fill="#8E8F99"/>
<path d="M54.3765 21.4726C53.9611 21.023 53.7534 20.3679 53.7534 19.5011V16.4632C53.7534 15.6053 53.9611 14.956 54.3765 14.5153C54.7918 14.0746 55.4864 13.8552 56.4601 13.8572C57.427 13.8572 58.1182 14.0766 58.5336 14.5153C58.9489 14.956 59.16 15.6053 59.16 16.4632V19.5011C59.16 20.359 58.9489 21.0172 58.5267 21.4696C58.1046 21.9221 57.4168 22.1483 56.4601 22.1483C55.5034 22.1483 54.7952 21.9191 54.3765 21.4726ZM57.2262 20.7439C57.3749 20.4623 57.4427 20.1539 57.4236 19.8449V16.1253C57.4427 15.8223 57.3761 15.5198 57.2296 15.2439C57.1461 15.1376 57.0298 15.0537 56.8937 15.0018C56.7576 14.9498 56.6074 14.9319 56.4601 14.9501C56.3124 14.9324 56.1618 14.9505 56.0254 15.0023C55.8889 15.0542 55.7718 15.1379 55.6873 15.2439C55.5375 15.519 55.4697 15.8219 55.4898 16.1253V19.8625C55.4691 20.1716 55.5369 20.4804 55.6873 20.7615C55.7831 20.8563 55.9014 20.9323 56.0341 20.9843C56.1668 21.0364 56.3109 21.0633 56.4567 21.0633C56.6025 21.0633 56.7466 21.0364 56.8793 20.9843C57.012 20.9323 57.1303 20.8563 57.2262 20.7615V20.7439Z" fill="#8E8F99"/>
<path d="M61.1378 13.9459H62.9083L64.2395 19.551L65.6014 13.9459H67.3242L67.4978 22.0363H66.2244L66.0883 16.4136L64.774 22.0363H63.7526L62.3907 16.393L62.2648 22.0363H60.9778L61.1378 13.9459Z" fill="#8E8F99"/>
<path d="M69.4829 13.9459H72.2406C73.8295 13.9459 74.6239 14.7117 74.6239 16.2432C74.6239 17.7101 73.7875 18.4426 72.1147 18.4406H71.175V22.0363H69.4727L69.4829 13.9459ZM71.8389 17.4036C72.0071 17.422 72.1779 17.4087 72.3396 17.3646C72.5012 17.3204 72.6499 17.2465 72.7752 17.148C72.9704 16.8748 73.0565 16.5539 73.0203 16.2344C73.0292 15.9876 73.0018 15.7408 72.9386 15.5C72.9143 15.4195 72.8717 15.3441 72.8133 15.278C72.7548 15.2119 72.6817 15.1565 72.5981 15.1151C72.3618 15.0173 72.1006 14.9728 71.8389 14.9859H71.1784V17.4036H71.8389Z" fill="#8E8F99"/>
<path d="M77.0786 13.9459H78.9069L80.7829 22.0363H79.1963L78.8252 20.1709H77.1944L76.813 22.0363H75.2026L77.0786 13.9459ZM78.6413 19.2338L78.0047 15.8378L77.368 19.2338H78.6413Z" fill="#8E8F99"/>
<path d="M82.2981 13.9459H83.4897L85.7709 18.561V13.9459H87.1838V22.0363H86.0501L83.7553 17.2185V22.0363H82.2947L82.2981 13.9459Z" fill="#8E8F99"/>
<path d="M90.4931 18.9515L88.5967 13.9572H90.1935L91.3511 17.1653L92.4372 13.9572H93.9999L92.1273 18.9515V22.0362H90.4931V18.9515Z" fill="#8E8F99"/>
<path d="M50.1578 25.5736V25.9967H48.7687V29.2842H48.1865V25.9967H46.7905V25.5736H50.1578Z" fill="#8E8F99"/>
<path d="M54.5122 29.2844H54.0628C54.0171 29.2869 53.9721 29.2743 53.9368 29.2492C53.9028 29.2277 53.8768 29.1981 53.8619 29.164L53.4602 28.2827H51.5331L51.1313 29.164C51.1199 29.2009 51.0989 29.235 51.07 29.2639C51.0344 29.2885 50.9896 29.301 50.9441 29.2991H50.4946L52.197 25.5887H52.7894L54.5122 29.2844ZM51.6931 27.9066H53.3001L52.6192 26.3966C52.569 26.2824 52.5269 26.1657 52.4932 26.047C52.4694 26.1175 52.449 26.1851 52.4285 26.2439L52.3672 26.3996L51.6931 27.9066Z" fill="#8E8F99"/>
<path d="M57.4472 28.92C57.5538 28.9249 57.6606 28.9249 57.7672 28.92C57.8593 28.9119 57.9504 28.8971 58.0396 28.876C58.123 28.8583 58.2049 28.8357 58.2848 28.8084C58.3597 28.782 58.4346 28.7496 58.5129 28.7173V27.8829H57.8319C57.8151 27.8837 57.7982 27.8815 57.7824 27.8765C57.7666 27.8714 57.7522 27.8636 57.74 27.8535C57.7288 27.8451 57.72 27.8347 57.7141 27.823C57.7082 27.8113 57.7054 27.7987 57.706 27.7859V27.5009H59.027V28.923C58.9192 28.9895 58.8053 29.0485 58.6865 29.0993C58.5651 29.151 58.4386 29.1932 58.3086 29.2256C58.1694 29.261 58.027 29.2865 57.883 29.302C57.7179 29.3178 57.552 29.3257 57.3859 29.3255C57.0923 29.3276 56.8009 29.2807 56.5279 29.1874C56.273 29.099 56.0414 28.9671 55.847 28.7996C55.6574 28.6304 55.5082 28.4307 55.4078 28.2119C55.3005 27.966 55.2474 27.7049 55.2512 27.4421C55.2476 27.1777 55.2995 26.9149 55.4044 26.6665C55.5023 26.4466 55.6518 26.2465 55.8436 26.0788C56.0379 25.9119 56.2696 25.7809 56.5245 25.6939C56.8161 25.5993 57.1255 25.5525 57.437 25.5558C57.5955 25.5557 57.7537 25.5665 57.9102 25.5882C58.0486 25.6076 58.1844 25.6391 58.3154 25.6822C58.4345 25.7208 58.5486 25.77 58.6559 25.8291C58.7602 25.8871 58.8593 25.9519 58.9521 26.023L58.7887 26.2522C58.7759 26.2731 58.7568 26.2907 58.7334 26.3031C58.7101 26.3155 58.6833 26.3223 58.6559 26.3227C58.6182 26.3216 58.5816 26.3115 58.5503 26.2933C58.4993 26.2698 58.4448 26.2404 58.3835 26.2052C58.3111 26.166 58.2348 26.1326 58.1554 26.1053C58.0539 26.0702 57.9491 26.0426 57.8421 26.023C57.6995 26.0003 57.5547 25.9895 57.4097 25.9907C57.1851 25.9885 56.9621 26.0234 56.7526 26.0935C56.5632 26.1591 56.3924 26.2593 56.2522 26.3873C56.1111 26.5207 56.0033 26.6777 55.9355 26.8486C55.7834 27.2505 55.7834 27.6837 55.9355 28.0856C56.01 28.2601 56.126 28.4192 56.276 28.5528C56.4156 28.6801 56.5851 28.7802 56.7731 28.8466C56.9896 28.9107 57.219 28.9357 57.4472 28.92V28.92Z" fill="#8E8F99"/>
<path d="M62.8743 28.8611H64.7333V29.2842H62.3057V25.5736H62.8879L62.8743 28.8611Z" fill="#8E8F99"/>
<path d="M66.6672 29.2842H66.085V25.5736H66.6672V29.2842Z" fill="#8E8F99"/>
<path d="M68.8324 25.5912C68.867 25.6082 68.8971 25.6312 68.9209 25.6587L71.4097 28.4558C71.4063 28.4118 71.4063 28.3676 71.4097 28.3236C71.4097 28.2824 71.4097 28.2413 71.4097 28.2031V25.5588H71.917V29.2843H71.6242C71.5808 29.2874 71.5373 29.2803 71.4982 29.2638C71.4629 29.2453 71.4317 29.2214 71.4063 29.1933L68.9209 26.3991C68.9209 26.4432 68.9209 26.4843 68.9209 26.5255C68.9209 26.5666 68.9209 26.6048 68.9209 26.6401V29.2843H68.4341V25.5735H68.7371C68.7699 25.5736 68.8024 25.5796 68.8324 25.5912V25.5912Z" fill="#8E8F99"/>
<path d="M76.2037 25.5736V25.982H74.1405V27.2071H75.8122V27.6008H74.1405V28.8671H76.2037V29.2754H73.5413V25.5736H76.2037Z" fill="#8E8F99"/>
<path d="M15.1952 2.65865L41.047 8.99268V31.1882L15.1952 24.8571V2.65865ZM13.5371 0.766663V25.9353L42.7017 33.0832V7.91742L13.5371 0.766663Z" fill="#8E8F99"/>
<path d="M29.168 44.7666L0 37.6128V12.4468L29.168 19.5976V44.7666Z" fill="#8E8F99"/>
<path d="M14.0205 2.37365L39.5352 8.62825L28.6845 17.994L3.16636 11.7365L14.0205 2.37365ZM13.537 0.766663L0 12.4474L29.168 19.598L42.7016 7.9173L13.537 0.766663Z" fill="#8E8F99"/>
<path d="M30.8091 43.3508L42.7016 33.0862L30.8091 30.1689V43.3508Z" fill="#8E8F99"/>
</svg>
